<svg class="pricing-svg" id="homes" viewBox="0 -58 512 511" xmlns="http://www.w3.org/2000/svg">
		<path d="m506.144531 124.359375-118-118c-7.8125-7.8125-20.476562-7.8125-28.285156 0l-44.859375 44.855469-44.855469-44.855469c-7.8125-7.8125-20.476562-7.8125-28.285156 0l-44.859375 44.855469-44.859375-44.855469c-7.808594-7.8125-20.472656-7.8125-28.28125 0l-118 118c-3.753906 3.75-5.859375 8.835937-5.859375 14.140625v236c0 11.046875 8.953125 20 20 20h472c11.046875 0 20-8.953125 20-20v-236c0-5.304688-2.105469-10.390625-5.855469-14.140625zm-250.144531-75.574219c10.535156 10.535156 85.859375 85.859375 98 98v207.714844h-78v-216c0-5.304688-2.105469-10.390625-5.855469-14.140625l-44.859375-44.859375zm-216 98 98-98 98 98v207.714844h-38.664062v-98c0-11.046875-8.953126-20-20-20h-78.667969c-11.046875 0-20 8.953125-20 20v98h-38.667969zm117.335938 207.714844h-38.667969v-78h38.667969zm314.664062 0h-78v-216c0-5.304688-2.105469-10.390625-5.855469-14.140625l-44.859375-44.859375 30.714844-30.714844 98 98zm0 0"/>
</svg>